# xmcd
#
# Track frame offsets:
# 150
# 4370
# 21335
# 44482
# 62177
# 78817
# 94890
# 111232
# 126185
# 144767
# 168415
# 187312
#
# Disc length: 2787 seconds
#
#
# Revision: 16
# Processed by: cddbd v1.5.2PL0 Copyright (c) Steve Scherf et al.
# Submitted via: FreeRIP 2.943 
#
DISCID=a60ae10c
DTITLE=Scooter - No Time To Chill - No Time To Chill
DYEAR=1998
DGENRE=Techno
TTITLE0=Last Warning
TTITLE1=How Much Is The Fish?
TTITLE2=We Are The Greatest
TTITLE3=Call Me Manana
TTITLE4=Don't Stop
TTITLE5=I Was Made For Lovin' You
TTITLE6=Frequent Traveller
TTITLE7=Eyes Without A Face
TTITLE8=Hands Up!
TTITLE9=Everything's Borrowed
TTITLE10=Expecting More From Ratty
TTITLE11=Time And Space
EXTD=ID3G: 13
EXTT0=
EXTT1=
EXTT2=
EXTT3=
EXTT4=
EXTT5=
EXTT6=
EXTT7=
EXTT8=
EXTT9=
EXTT10=
EXTT11=
PLAYORDER=
